<?xml version="1.0" standalone="no"?>
<!DOCTYPE svg PUBLIC "-//W3C//DTD SVG 20010904//EN"
 "http://www.w3.org/TR/2001/REC-SVG-20010904/DTD/svg10.dtd">
<svg version="1.0" xmlns="http://www.w3.org/2000/svg"
 width="691.000000pt" height="707.000000pt" viewBox="0 0 691.000000 707.000000"
 preserveAspectRatio="xMidYMid meet">
<metadata>
Created by potrace 1.16, written by Peter Selinger 2001-2019
</metadata>
 <circle cx="50" cy="50" r="50" stroke="green" strokeWidth="4" fill="yellow" />
<g transform="translate(0.000000,707.000000) scale(0.100000,-0.100000)"
fill="#79e0f2">
<path d="M3675 7050 c-5 -15 23 -76 103 -228 60 -114 129 -245 152 -292 23
-47 69 -132 101 -190 84 -151 104 -213 128 -390 12 -85 37 -249 56 -365 56
-345 63 -369 105 -362 18 2 116 145 165 238 19 37 45 75 58 86 13 10 27 29 31
41 4 12 23 45 42 73 46 70 45 103 -12 236 -25 59 -61 148 -79 199 -18 50 -42
109 -53 131 -21 41 -191 237 -540 623 -153 169 -201 216 -223 218 -20 2 -29
-2 -34 -18z"/>
<path d="M3069 6818 c-68 -79 -182 -203 -253 -277 -197 -206 -334 -401 -424
-606 -92 -210 -107 -303 -59 -372 14 -21 33 -55 42 -75 8 -21 19 -38 24 -38 5
0 23 -28 41 -62 32 -64 158 -246 185 -268 12 -10 22 -10 39 -2 27 12 19 -30
86 457 28 204 60 405 72 448 13 48 53 141 104 240 47 89 141 274 210 412 132
261 137 276 82 283 -22 3 -44 -18 -149 -140z"/>
<path d="M4870 6517 c-108 -24 -189 -91 -239 -197 -23 -48 -26 -68 -26 -160 0
-95 3 -111 28 -163 37 -75 108 -146 182 -183 54 -26 70 -29 155 -29 82 0 103
4 150 26 69 33 133 97 168 169 24 49 27 66 27 160 0 99 -2 110 -33 172 -77
157 -247 241 -412 205z"/>
<path d="M1880 6458 c-78 -30 -179 -133 -208 -211 -30 -78 -37 -151 -22 -222
25 -123 104 -229 207 -280 52 -26 69 -29 153 -30 86 0 101 3 153 30 74 37 149
117 178 193 19 46 23 76 24 162 0 97 -2 110 -31 170 -38 80 -101 145 -174 179
-77 36 -201 40 -280 9z"/>
<path d="M1165 6213 c-80 -42 -118 -102 -119 -189 -1 -79 37 -146 104 -182 91
-48 207 -16 261 71 42 70 34 177 -18 245 -49 64 -160 91 -228 55z"/>
<path d="M4923 5710 c-7 -8 -47 -13 -112 -14 -116 -1 -143 -14 -176 -84 -11
-23 -27 -45 -37 -48 -10 -3 -22 -22 -28 -42 -11 -44 -64 -130 -84 -138 -7 -3
-35 -53 -61 -111 -52 -113 -53 -135 -3 -141 14 -2 165 36 334 84 493 138 476
134 583 134 53 0 222 -11 376 -25 154 -14 335 -28 402 -31 l122 -7 7 27 c4 18
2 32 -7 40 -8 8 -113 48 -234 91 -121 42 -296 106 -390 142 -247 95 -368 124
-540 130 -103 4 -143 2 -152 -7z"/>
<path d="M1675 5645 c-27 -8 -252 -83 -500 -168 l-450 -155 0 -34 0 -33 125 2
c69 1 276 12 460 23 299 19 342 20 400 7 36 -8 235 -67 443 -132 395 -122 407
-124 407 -73 0 22 -27 78 -76 153 -18 30 -34 56 -34 59 0 2 -17 31 -39 63 -33
50 -84 141 -130 233 -12 25 -20 28 -80 33 -36 3 -100 10 -141 15 -137 19 -330
22 -385 7z"/>
<path d="M6307 5078 c-30 -57 -108 -206 -173 -333 -204 -393 -267 -474 -644
-831 -132 -125 -243 -238 -246 -250 -3 -12 -4 -31 -2 -41 3 -16 15 -18 128
-17 69 1 209 5 312 9 l187 7 99 152 c201 307 252 430 307 731 14 77 55 254 91
393 69 269 70 282 18 282 -19 0 -32 -17 -77 -102z"/>
<path d="M547 4993 c-13 -13 -7 -53 33 -205 23 -84 59 -241 81 -348 76 -373
182 -620 375 -876 l56 -74 166 1 c238 1 447 19 469 41 13 14 15 23 7 42 -5 13
-144 139 -309 281 -165 141 -321 282 -347 312 -25 30 -76 112 -113 182 -37 69
-133 244 -212 389 -135 243 -147 262 -172 262 -15 0 -31 -3 -34 -7z"/>
<path d="M130 4419 c-33 -13 -88 -66 -108 -104 -20 -39 -20 -141 0 -180 21
-40 76 -91 111 -104 42 -16 107 -13 152 8 150 68 153 294 5 369 -47 23 -116
28 -160 11z"/>
<path d="M6450 4106 c-83 -18 -126 -45 -242 -151 -161 -145 -204 -229 -196
-379 5 -99 29 -157 92 -224 68 -73 148 -106 252 -106 72 0 88 4 155 36 94 46
252 168 301 233 53 70 73 133 72 230 -1 103 -29 177 -94 248 -58 64 -125 102
-204 116 -69 13 -65 13 -136 -3z"/>
<path d="M500 3825 c-107 -31 -192 -102 -246 -207 -23 -44 -28 -69 -32 -148
-5 -118 17 -184 86 -261 173 -193 486 -136 600 109 38 80 43 212 12 294 -27
74 -104 159 -174 193 -68 33 -169 41 -246 20z"/>
<path d="M5665 3584 c-11 -17 -124 -31 -324 -39 -51 -3 -100 -10 -107 -16 -26
-21 -17 -66 19 -90 17 -13 50 -39 73 -60 22 -20 85 -69 140 -109 334 -246 550
-502 718 -850 25 -52 78 -149 118 -215 60 -99 78 -121 99 -123 59 -7 59 -7
-86 535 -76 279 -142 517 -147 528 -6 10 -78 112 -160 225 l-150 205 -61 6
c-34 3 -75 9 -92 13 -22 5 -33 2 -40 -10z"/>
<path d="M1288 3453 l-196 -3 -63 -93 c-34 -50 -89 -126 -120 -168 -116 -154
-155 -245 -228 -536 -28 -109 -81 -316 -120 -461 -38 -145 -67 -270 -64 -278
3 -8 18 -14 33 -14 25 0 34 10 73 78 24 42 77 142 117 222 217 433 460 745
761 977 131 102 241 216 237 246 -4 28 -36 35 -148 34 -47 -1 -173 -3 -282 -4z"/>
<path d="M2190 1844 c-179 -69 -363 -138 -410 -154 l-85 -29 -458 -2 c-303 -2
-466 -7 -480 -14 -26 -12 -34 -47 -15 -62 7 -6 121 -38 253 -72 132 -33 321
-83 420 -111 288 -81 440 -97 625 -66 47 8 121 17 165 21 44 4 90 13 103 22
14 8 42 55 68 111 24 53 54 115 66 137 44 82 115 231 129 268 16 45 5 71 -32
74 -13 1 -170 -54 -349 -123z"/>
<path d="M4547 1903 c-4 -3 -7 -15 -7 -25 0 -26 99 -221 120 -235 9 -7 23 -27
30 -45 8 -18 29 -57 48 -86 19 -29 40 -68 46 -86 6 -18 27 -51 46 -72 l34 -39
265 0 c345 0 411 13 726 143 66 27 203 75 305 107 102 32 191 63 198 68 13 10
17 63 5 70 -11 7 -360 -11 -578 -28 -211 -18 -316 -19 -404 -5 -35 6 -223 62
-419 125 -333 108 -399 125 -415 108z"/>
<path d="M2615 1850 c-9 -16 -40 -66 -70 -110 -33 -49 -55 -92 -55 -108 0 -15
-10 -43 -22 -62 -35 -57 -68 -120 -68 -131 0 -6 -9 -22 -20 -36 -38 -48 -28
-83 81 -287 55 -104 111 -212 124 -240 20 -42 90 -112 415 -416 314 -294 396
-365 418 -365 20 0 28 5 30 23 4 23 -33 84 -293 482 -139 214 -247 420 -288
551 -15 46 -36 140 -47 209 -23 137 -90 397 -122 473 -25 58 -58 65 -83 17z"/>
<path d="M4435 1840 c-18 -7 -26 -51 -83 -448 -35 -245 -71 -464 -81 -493 -11
-30 -112 -234 -225 -454 -114 -220 -205 -409 -204 -420 2 -15 12 -21 38 -23
33 -2 39 3 120 100 47 56 141 160 210 232 69 72 156 167 194 211 92 107 214
294 275 418 57 119 121 286 121 319 0 44 -22 100 -56 146 -18 26 -47 65 -63
87 -17 22 -41 64 -54 92 -34 74 -139 231 -157 236 -9 2 -25 1 -35 -3z"/>
<path d="M1990 1263 c-19 -2 -39 -8 -45 -13 -5 -4 -35 -11 -65 -15 -128 -15
-256 -115 -300 -233 -31 -81 -25 -212 12 -294 72 -155 222 -234 397 -208 224
33 288 58 370 145 70 74 94 144 89 261 -3 74 -9 100 -33 149 -37 76 -110 149
-181 182 -56 25 -164 37 -244 26z"/>
<path d="M4954 1220 c-105 -41 -189 -146 -220 -274 -42 -169 48 -361 204 -434
54 -26 66 -27 241 -30 203 -4 233 2 319 60 143 97 195 326 113 493 -39 79
-111 146 -189 176 -50 20 -80 23 -237 26 -162 3 -185 1 -231 -17z"/>
</g>
</svg>
